# xmcd CD database file
#
# Track frame offsets:
#	150
#	2784
#	5154
#	12835
#	20532
#	27129
#	33733
#	40744
#	47775
#	56781
#	65794
#	73574
#	81327
#	88127
#	94888
#	103722
#	112510
#	119704
#	126902
#	132716
#
# Disc length: 1846 seconds
#
# Revision: 0
# Processed by: cddbd v1.5.2PL0 Copyright (c) Steve Scherf et al.
# Submitted via: CDex 1.79
#
DISCID=1c073414
DTITLE=DeHaske - Schenk - Brunthaler - Boogie For Winds
DYEAR=1998
DGENRE=Jazz
TTITLE0=Tunning Note A
TTITLE1=Tunning Note Bb
TTITLE2=Best Friend Boogie a
TTITLE3=Best Friend Boogie b
TTITLE4=Blue Note Boogie a
TTITLE5=Blue Note Boogie b
TTITLE6=Breakfast Boogie a
TTITLE7=Breakfast Boogie b
TTITLE8=Cool Boogie a
TTITLE9=Cool Boogie b
TTITLE10=Dino Boogie a
TTITLE11=Dino Boogie b
TTITLE12=Game Boy Boogie a 
TTITLE13=Game Boy Boogie b
TTITLE14=Roller Blades Boogie a
TTITLE15=Roller Blades Boogie b
TTITLE16=Skate Board Boogie a
TTITLE17=Skate Board Boogie b
TTITLE18=Weekend Boogie a
TTITLE19=Weekend Boogie b
EXTD=YEAR: 1998
EXTT0=
EXTT1=
EXTT2=
EXTT3=
EXTT4=
EXTT5=
EXTT6=
EXTT7=
EXTT8=
EXTT9=
EXTT10=
EXTT11=
EXTT12=
EXTT13=
EXTT14=
EXTT15=
EXTT16=
EXTT17=
EXTT18=
EXTT19=
PLAYORDER=
